<svg width="89" height="36" viewBox="0 0 89 36" fill="none" xmlns="http://www.w3.org/2000/svg">
<rect width="89" height="36" fill="#CE3492"/>
<path d="M14.574 12.7H18.774V14.1H16.114V16.69H18.228V18.09H16.114V21.1H18.774V22.5H14.574V12.7ZM22.1799 12.7H24.1119L25.6099 18.566H25.6379V12.7H27.0099V22.5H25.4279L23.5799 15.346H23.5519V22.5H22.1799V12.7ZM30.2685 12.7H31.8225L32.8305 20.302H32.8585L33.8665 12.7H35.2805L33.7965 22.5H31.7525L30.2685 12.7ZM40.7389 22.64C39.9829 22.64 39.4042 22.4253 39.0029 21.996C38.6016 21.5667 38.4009 20.96 38.4009 20.176V15.024C38.4009 14.24 38.6016 13.6333 39.0029 13.204C39.4042 12.7747 39.9829 12.56 40.7389 12.56C41.4949 12.56 42.0736 12.7747 42.4749 13.204C42.8762 13.6333 43.0769 14.24 43.0769 15.024V20.176C43.0769 20.96 42.8762 21.5667 42.4749 21.996C42.0736 22.4253 41.4949 22.64 40.7389 22.64ZM40.7389 21.24C41.2709 21.24 41.5369 20.918 41.5369 20.274V14.926C41.5369 14.282 41.2709 13.96 40.7389 13.96C40.2069 13.96 39.9409 14.282 39.9409 14.926V20.274C39.9409 20.918 40.2069 21.24 40.7389 21.24ZM47.8063 18.328L45.9443 12.7H47.5823L48.6323 16.298H48.6603L49.7103 12.7H51.2083L49.3463 18.328V22.5H47.8063V18.328ZM54.422 12.7H58.622V14.1H55.962V16.69H58.076V18.09H55.962V21.1H58.622V22.5H54.422V12.7ZM62.028 12.7H64.31C65.1033 12.7 65.682 12.8867 66.046 13.26C66.41 13.624 66.592 14.1887 66.592 14.954V15.556C66.592 16.5733 66.256 17.2173 65.584 17.488V17.516C65.9573 17.628 66.2187 17.8567 66.368 18.202C66.5267 18.5473 66.606 19.0093 66.606 19.588V21.31C66.606 21.59 66.6153 21.8187 66.634 21.996C66.6527 22.164 66.6993 22.332 66.774 22.5H65.206C65.15 22.3413 65.1127 22.192 65.094 22.052C65.0753 21.912 65.066 21.66 65.066 21.296V19.504C65.066 19.056 64.9913 18.7433 64.842 18.566C64.702 18.3887 64.4547 18.3 64.1 18.3H63.568V22.5H62.028V12.7ZM64.128 16.9C64.436 16.9 64.6647 16.8207 64.814 16.662C64.9727 16.5033 65.052 16.2373 65.052 15.864V15.108C65.052 14.7533 64.9867 14.4967 64.856 14.338C64.7347 14.1793 64.5387 14.1 64.268 14.1H63.568V16.9H64.128Z" fill="black"/>
</svg>
